<?xml version="1.0" encoding="utf-8"?>
<!-- Generator: Adobe Illustrator 15.0.0, SVG Export Plug-In . SVG Version: 6.00 Build 0)  -->
<!DOCTYPE svg PUBLIC "-//W3C//DTD SVG 1.1//EN" "http://www.w3.org/Graphics/SVG/1.1/DTD/svg11.dtd">
<svg version="1.1" id="Layer_1" xmlns="http://www.w3.org/2000/svg" xmlns:xlink="http://www.w3.org/1999/xlink" x="0px" y="0px"
	 width="383.545px" height="130.144px" viewBox="0 0 383.545 130.144" enable-background="new 0 0 383.545 130.144"
	 xml:space="preserve">
<path fill="#FFFFFF" d="M17.134,19.421L0.218,79.003c-1.058,8.169,1.943,13.406,4.506,17.198
	c2.564,3.794,16.767,23.866,16.767,23.866c7.331,11.371,21.485,10.027,21.485,10.027h59.453
	c11.552-1.443,15.945-11.644,15.945-11.644l8.08,11.644h122.698l3.022-10.861c7.746,11.303,25.646,10.861,25.646,10.861h53.298
	c22.567-3.117,28.161-19.966,28.161-19.966l7.224-25.688c2.688-7.963-0.494-13.465-0.494-13.465l-2.042-3.746
	c-1.322-2.981,1.158-2.44,2.887-2.665l5.519-0.321l5.71-19.889c1.204-10.32-3.912-14.47-10.99-24.345
	c-2.118-2.956-5.907-7.583-5.907-7.583c-7.71-9.747-22.645-9.624-22.645-9.624h-67.669c-5.721,0-10.122,4.517-10.122,4.517
	l-0.729-4.495h-56.2l-8.326,11.233l-6.846-11.233l-60.25-0.012l-2.467,9.564c-4.539-10.342-22.95-9.561-22.95-9.561H41.827
	C21.31,2.813,17.134,19.421,17.134,19.421"/>
<path fill="#FFFFFF" d="M103.788,5.679L103.788,5.679h0.069c0.467,0,1.128,0.01,1.931,0.05c1.694,0.083,3.978,0.295,6.369,0.803
	c2.407,0.511,4.814,1.298,6.823,2.472c1.995,1.165,3.491,2.644,4.317,4.529l3.344,7.616l3.986-15.46L187.032,5.7l8.23,13.502
	L205.27,5.701h52.304l1.251,7.717l3.99-4.094c0.011-0.013,0.039-0.04,0.104-0.101c0.099-0.093,0.253-0.233,0.462-0.41
	c0.419-0.354,1.036-0.831,1.804-1.309c1.569-0.976,3.566-1.824,5.687-1.824h67.669h0.023c0,0,0.011-0.001,0.041-0.001
	c0.06,0,0.199,0.002,0.485,0.012c0.377,0.014,0.938,0.044,1.639,0.109c1.408,0.131,3.364,0.4,5.538,0.949
	c4.405,1.115,9.365,3.294,12.661,7.462l0.031,0.037c0,0,0.942,1.152,2.132,2.65c1.191,1.499,2.636,3.354,3.663,4.788
	c1.285,1.792,2.512,3.404,3.62,4.865c2.619,3.445,4.494,5.937,5.669,8.56c1.089,2.43,1.6,5.047,1.208,8.682l-5.081,17.699
	l-3.688,0.219c-0.17,0.023-0.379,0.034-0.734,0.051c-0.34,0.018-0.923,0.045-1.423,0.126c-0.501,0.083-1.369,0.275-2.152,0.889
	c-0.422,0.331-0.8,0.769-1.066,1.321c-0.264,0.546-0.372,1.103-0.387,1.623c-0.026,0.974,0.274,1.896,0.62,2.675l2.171,3.999
	c0,0,0.003,0.005,0.01,0.021c0.009,0.016,0.021,0.041,0.042,0.082c0.052,0.107,0.135,0.285,0.232,0.533
	c0.199,0.493,0.456,1.254,0.647,2.238c0.379,1.956,0.498,4.809-0.664,8.253l-7.258,25.789c-0.025,0.069-0.074,0.196-0.173,0.431
	c-0.165,0.391-0.434,0.978-0.824,1.705c-0.785,1.457-2.058,3.457-3.98,5.553c-3.79,4.133-10.184,8.73-20.625,10.219l-53.168,0.001
	c0,0-0.049,0.002-0.184,0.002c-0.104,0-0.255-0.001-0.474-0.006c-0.459-0.009-1.134-0.033-1.974-0.097
	c-1.688-0.127-4.01-0.406-6.547-1.014c-5.163-1.236-10.743-3.709-14.025-8.497l-3.489-5.091l-4.091,14.701H127.959l-10.176-14.665
	l-2.186,5.039c-0.114,0.225-0.295,0.563-0.55,0.985c-0.513,0.847-1.308,2.002-2.419,3.194c-2.19,2.351-5.542,4.794-10.386,5.446
	l-59.537,0.013c0,0-0.054,0.011-0.456,0.024c-0.179,0.007-0.406,0.012-0.678,0.012c-0.24,0-0.513-0.004-0.818-0.016
	c-1.294-0.045-3.093-0.215-5.089-0.701c-4-0.975-8.614-3.168-11.756-8.041l-0.069-0.104C23.76,118.29,9.644,98.343,7.106,94.59
	c-1.23-1.821-2.449-3.823-3.263-6.259c-0.791-2.362-1.226-5.213-0.798-8.754l16.878-59.45c0,0,0.006-0.024,0.023-0.085
	c0.017-0.063,0.054-0.183,0.132-0.41c0.126-0.372,0.334-0.931,0.646-1.61c0.625-1.364,1.647-3.195,3.233-5.018
	c1.58-1.818,3.718-3.633,6.591-4.997c2.865-1.362,6.549-2.315,11.279-2.315l61.275-0.003C103.103,5.688,103.274,5.68,103.788,5.679"
	/>
<path fill="#231F20" d="M17.134,19.421L0.218,79.003c-1.058,8.169,1.943,13.406,4.506,17.198
	c2.564,3.794,16.767,23.866,16.767,23.866c7.331,11.371,21.485,10.027,21.485,10.027h59.453
	c11.552-1.443,15.945-11.644,15.945-11.644l8.08,11.644h122.698l3.022-10.861c7.746,11.303,25.646,10.861,25.646,10.861h53.298
	c22.567-3.117,28.161-19.966,28.161-19.966l7.224-25.688c2.688-7.963-0.494-13.465-0.494-13.465l-2.042-3.746
	c-1.322-2.981,1.158-2.44,2.887-2.665l5.519-0.321l5.71-19.889c1.204-10.32-3.912-14.47-10.99-24.345
	c-2.118-2.956-5.907-7.583-5.907-7.583c-7.71-9.747-22.645-9.624-22.645-9.624h-67.669c-5.721,0-10.122,4.517-10.122,4.517
	l-0.729-4.495h-56.2l-8.326,11.233l-6.846-11.233l-60.25-0.012l-2.467,9.564c-4.539-10.342-22.95-9.561-22.95-9.561H41.827
	C21.31,2.813,17.134,19.421,17.134,19.421"/>
<path fill="#F7B618" d="M40.208,74.854h-1.521c-2.447-0.229-1.334-3.807-1.334-3.807l9.496-32.58
	c1.332-5.291,5.555-5.037,5.555-5.037h15.988h18.636c5.231,0,2.576,6.625,2.576,6.625h28.387l4.431-15.341
	c0.192-8.907-7.855-16.026-15.64-16.026H39.848c-8.93,0-14.852,6.158-17.381,14.107c0,0-15.383,54.026-16.026,56.176
	c-0.524,1.757-0.636,3.876-0.636,3.876c-0.043,9.305,5.043,16.69,15.018,16.6H89.35c8.177-0.03,11.162-0.661,15.22-12.747
	l4.991-17.256H81.108c0,0-0.101,1.188-1.13,3.088c-1.069,1.967-3.944,2.348-3.944,2.348C70.934,74.88,40.208,74.854,40.208,74.854"
	/>
<path fill="#F7B618" d="M52.235,33.976c0.041-0.002,0.071-0.002,0.091-0.002c0.038,0,0.046,0.001,0.046,0.001l16.02,0.001h18.636
	c1.186,0,1.823,0.369,2.181,0.827c0.377,0.481,0.528,1.166,0.524,1.937c-0.003,0.764-0.162,1.542-0.321,2.14
	c-0.159,0.589-0.311,0.974-0.311,0.974l-0.302,0.748h29.602l4.566-15.875c0.098-4.626-1.941-8.774-4.991-11.756
	c-3.049-2.979-7.139-4.828-11.194-4.828H39.848c-4.6,0-8.44,1.59-11.448,4.206c-3.003,2.612-5.166,6.231-6.453,10.282
	c0,0-15.386,54.039-16.028,56.185c-0.544,1.819-0.658,4.004-0.658,4.004l-0.001,0.025c-0.022,4.746,1.263,9.055,3.879,12.176
	c2.595,3.096,6.458,4.973,11.504,4.973c0.061,0,0.123-0.002,0.185-0.002H89.35c2.043-0.006,3.804-0.051,5.347-0.312
	c1.554-0.263,2.907-0.748,4.13-1.647c1.22-0.896,2.277-2.176,3.28-3.981c1.002-1.801,1.961-4.144,2.981-7.179l5.195-17.973H80.608
	l-0.043,0.5c0,0,0,0.022-0.025,0.163c-0.021,0.124-0.062,0.313-0.135,0.562c-0.143,0.498-0.412,1.234-0.907,2.148
	c-0.445,0.818-1.291,1.342-2.097,1.664c-0.393,0.158-0.757,0.262-1.025,0.322c-0.259,0.061-0.414,0.076-0.414,0.076
	c-5.311,0-35.754-0.025-35.754-0.025h-1.496c-0.44-0.047-0.669-0.227-0.811-0.443c-0.16-0.25-0.242-0.603-0.254-1.017
	c-0.012-0.405,0.043-0.817,0.105-1.135c0.061-0.31,0.121-0.505,0.121-0.505l9.504-32.608c0.626-2.49,1.91-3.619,2.987-4.147
	c0.551-0.268,1.063-0.388,1.435-0.44C51.985,33.988,52.136,33.979,52.235,33.976 M52.417,32.886L52.417,32.886
	c-0.021-0.001-0.057-0.002-0.105-0.002c-0.34,0-1.323,0.053-2.427,0.592c-1.364,0.668-2.857,2.056-3.562,4.849l-9.495,32.575
	c-0.034,0.109-0.3,1.026-0.27,1.982c0.013,0.51,0.114,1.092,0.429,1.579c0.336,0.516,0.879,0.864,1.648,0.938l1.573,0.002
	c0,0,30.725,0.023,35.826,0.023l0.072-0.004c0,0,0.209-0.028,0.518-0.1c0.309-0.072,0.729-0.189,1.184-0.373
	c0.9-0.359,2.026-1.01,2.649-2.156c0.689-1.274,0.983-2.251,1.108-2.803h27.269l-4.784,16.547c-1.009,3.002-1.944,5.27-2.897,6.984
	c-0.955,1.715-1.916,2.858-2.972,3.635c-1.053,0.772-2.233,1.209-3.666,1.449c-1.446,0.244-3.123,0.289-5.17,0.297H20.821
	c-0.058,0.002-0.117,0.002-0.175,0.002c-4.754,0-8.302-1.754-10.67-4.582c-2.409-2.873-3.645-6.905-3.627-11.457
	c0.009-0.172,0.13-2.125,0.613-3.736c0.644-2.154,16.025-56.175,16.025-56.175c1.243-3.896,3.306-7.327,6.127-9.78
	c2.817-2.45,6.403-3.94,10.733-3.94h66.935c3.733,0,7.557,1.711,10.431,4.518c2.852,2.789,4.735,6.63,4.664,10.882l-4.295,14.878
	H90.364c0.033-0.108,0.067-0.224,0.101-0.349c0.173-0.644,0.352-1.522,0.358-2.415c0.006-0.883-0.161-1.857-0.756-2.617
	c-0.615-0.785-1.608-1.244-3.039-1.244H68.393H52.417z"/>
<path fill="#F7B618" d="M109.357,99.538h28.707l17.386-64.392c1.402-3.822,1.907,0.185,1.907,0.185l0.172,64.207h25.01
	l33.895-64.203c2.454-3.235,2.2,1.105,2.2,1.105l-16.589,63.114h28.084l26.029-90.916h-48.951l-26.937,42.61V8.644h-44.838
	L109.357,99.538z"/>
<path fill="#F7B618" d="M156.91,33.036L156.91,33.036c-0.11-0.053-0.235-0.086-0.369-0.086c-0.026,0-0.053,0.002-0.081,0.003
	c-0.16,0.016-0.301,0.077-0.422,0.156c-0.226,0.15-0.413,0.392-0.576,0.676c-0.17,0.293-0.342,0.68-0.523,1.174l-17.293,64.034
	H110.08l25.763-89.804h43.883v43.942l27.782-43.949h47.927l-25.717,89.825h-26.967l16.428-62.536c0,0,0.018-0.301,0.003-0.682
	c-0.017-0.368-0.063-0.878-0.214-1.298c-0.074-0.21-0.193-0.449-0.392-0.63c-0.182-0.167-0.417-0.271-0.684-0.271
	c-0.052,0-0.105,0.005-0.161,0.013c-0.3,0.046-0.583,0.21-0.85,0.432c-0.27,0.227-0.563,0.547-0.883,0.97l-33.791,63.987h-24.136
	l-0.175-63.729c0,0-0.035-0.276-0.11-0.616c-0.07-0.321-0.191-0.775-0.386-1.114C157.308,33.37,157.154,33.156,156.91,33.036
	 M135.433,8.099h-0.412l-26.387,91.985h29.846l17.49-64.771c0.166-0.449,0.313-0.768,0.438-0.984
	c0.036-0.062,0.068-0.114,0.099-0.156c0.084,0.187,0.158,0.448,0.217,0.709c0.049,0.228,0.078,0.415,0.088,0.487l0.173,64.715
	h25.883l34.027-64.454c0.281-0.366,0.509-0.607,0.688-0.759c0.142-0.118,0.232-0.163,0.278-0.179
	c0.019,0.027,0.048,0.079,0.08,0.167c0.093,0.26,0.135,0.633,0.148,0.976c0.011,0.24,0.005,0.435,0.002,0.522l-16.755,63.742h29.203
	l26.341-92.006h-49.974l-26.092,41.273V8.099H135.433z"/>
<path fill="#F7B618" d="M267.572,65.803h47.188c2.722,0.091,3.057,2.138,2.599,3.867c-0.286,1.077-1.172,4.099-1.172,4.099
	c-0.817,2.901-4.659,2.414-4.659,2.414h-35.386c-2.605,0.018-1.43-2.617-1.43-2.617l1.272-3.901l-28.907,0.003l-1.973,6.889
	c-7.329,25.855,12.545,22.721,12.84,22.988l64.222-0.006c16.451,0,19.906-16.299,19.906-16.299l6.856-24.048
	c1.435-7.594-6.297-16.626-13.534-16.383l-48.136-0.003c-1.558,0-3.037-0.535-2.819-2.82l1.361-4.705
	c0.426-1.94,1.404-2.744,2.963-2.744h35.529c2.29,0,3.07,1.613,3.003,2.432c-0.098,1.206-1.213,5.088-1.213,5.088l28.364-0.007
	l4.367-15.192c0.896-8.493-7.204-16.219-13.433-16.219h-70.471c-6.228,0-12.084,5.87-13.61,11.497l-8.195,28.557
	C251.668,56.649,259.128,65.803,267.572,65.803"/>
<path fill="#F7B618" d="M324.292,31.99L324.292,31.99h-35.53c-0.876,0-1.652,0.229-2.271,0.785
	c-0.604,0.543-0.992,1.344-1.219,2.369l-1.376,4.789c-0.062,0.63-0.007,1.174,0.157,1.638c0.169,0.471,0.443,0.838,0.794,1.111
	c0.682,0.532,1.591,0.669,2.41,0.669l48.136,0.004c0.091-0.005,0.181-0.005,0.271-0.005c3.326,0,6.806,2.043,9.328,5.059
	c2.586,3.09,4.071,7.074,3.403,10.656l-6.858,24.061c0,0-0.049,0.236-0.171,0.665c-0.125,0.433-0.317,1.054-0.601,1.801
	c-0.569,1.496-1.495,3.49-2.922,5.478c-2.843,3.969-7.668,7.923-15.679,7.923l-64.18,0.007c-0.018-0.007-0.036-0.012-0.036-0.012
	c-0.066-0.006-0.121-0.006-0.167-0.006h-0.04c-0.104,0-0.225,0-0.376,0.004c-0.223,0.007-0.503,0.013-0.827,0.013
	c-2.027,0-5.79-0.249-8.655-2.563c-1.643-1.328-3.017-3.356-3.581-6.492c-0.567-3.148-0.321-7.428,1.324-13.238l1.86-6.491
	l27.745-0.004l-1.033,3.164c0,0-0.093,0.233-0.155,0.456c-0.078,0.275-0.16,0.667-0.139,1.078c0.019,0.412,0.146,0.896,0.536,1.269
	c0.387,0.369,0.949,0.554,1.673,0.554h0.031h35.348c0.09,0.008,0.326,0.029,0.652,0.029c0.405,0,0.95-0.033,1.523-0.162
	c0.581-0.133,1.22-0.369,1.774-0.793c0.563-0.43,1.027-1.039,1.266-1.888c0,0,0.887-3.021,1.174-4.106
	c0.246-0.928,0.306-2.023-0.145-2.93c-0.229-0.463-0.586-0.864-1.091-1.152c-0.501-0.285-1.123-0.445-1.87-0.469h-47.206
	c-4.024,0-7.856-2.187-10.52-5.377c-2.657-3.185-4.087-7.291-3.415-11.068l8.188-28.529c0.733-2.704,2.517-5.493,4.881-7.601
	c2.365-2.111,5.262-3.501,8.203-3.501h70.473c2.91,0,6.356,1.823,8.983,4.744c2.606,2.897,4.322,6.785,3.911,10.825l-4.241,14.753
	l-27.231,0.006c0.104-0.378,0.239-0.877,0.377-1.41c0.145-0.562,0.298-1.171,0.418-1.71c0.117-0.535,0.214-1.035,0.241-1.377
	c0.047-0.582-0.197-1.337-0.765-1.943C326.492,32.447,325.575,31.99,324.292,31.99 M287.221,33.585
	c0.368-0.33,0.86-0.504,1.541-0.504h35.53c1.007,0,1.625,0.349,1.988,0.735c0.378,0.408,0.492,0.869,0.471,1.108
	c-0.021,0.261-0.101,0.696-0.219,1.229c-0.116,0.527-0.263,1.116-0.408,1.674c-0.288,1.113-0.565,2.078-0.565,2.078l-0.2,0.697
	l29.5-0.007l4.497-15.682c0.469-4.438-1.414-8.64-4.181-11.717c-2.757-3.064-6.476-5.103-9.794-5.103h-70.473
	c-3.283,0-6.428,1.545-8.929,3.776c-2.502,2.233-4.411,5.195-5.205,8.123l-8.206,28.603c-0.753,4.175,0.829,8.611,3.646,11.986
	c2.818,3.377,6.938,5.769,11.356,5.769h47.178c0.609,0.019,1.047,0.149,1.358,0.327c0.309,0.176,0.517,0.411,0.653,0.686
	c0.284,0.574,0.281,1.365,0.067,2.169c-0.282,1.069-1.169,4.084-1.169,4.084c-0.169,0.61-0.49,1.026-0.878,1.321
	c-0.395,0.301-0.874,0.486-1.354,0.596c-0.479,0.107-0.937,0.136-1.288,0.136c-0.339-0.001-0.546-0.026-0.546-0.026l-35.453-0.005
	h-0.024c-0.551,0-0.803-0.137-0.922-0.25c-0.121-0.114-0.189-0.286-0.202-0.532c-0.011-0.246,0.04-0.512,0.101-0.73
	c0.06-0.208,0.116-0.337,0.116-0.337l1.526-4.669l-30.071,0.004l-2.086,7.281c-1.673,5.91-1.956,10.365-1.348,13.733
	c0.609,3.382,2.113,5.646,3.969,7.146c1.843,1.49,3.997,2.193,5.874,2.523c1.35,0.237,2.576,0.283,3.459,0.283
	c0.344,0,0.634-0.006,0.861-0.012c0.13-0.003,0.239-0.006,0.316-0.008l64.455,0.015c8.441,0,13.569-4.194,16.565-8.378
	c2.875-4.012,3.8-8.018,3.87-8.334l6.862-24.08c0.757-4.006-0.906-8.323-3.633-11.583c-2.65-3.168-6.403-5.451-10.138-5.451
	c-0.104,0-0.205,0.002-0.308,0.004l-48.127-0.002c-0.738,0-1.35-0.132-1.74-0.438c-0.188-0.147-0.339-0.341-0.436-0.616
	c-0.096-0.269-0.146-0.633-0.104-1.12l1.356-4.691C286.533,34.489,286.844,33.925,287.221,33.585"/>
<path fill="#231F20" d="M376.348,14.417c3.956,0,7.197-3.239,7.197-7.219c0-3.957-3.241-7.198-7.197-7.198
	c-3.998,0-7.221,3.241-7.221,7.198C369.127,11.178,372.35,14.417,376.348,14.417 M376.348,13.063c-3.264,0-5.862-2.603-5.862-5.865
	c0-3.241,2.599-5.841,5.862-5.841c3.239,0,5.84,2.6,5.84,5.841C382.188,10.46,379.587,13.063,376.348,13.063 M378.042,7.84
	c1.375-0.094,2.111-0.68,2.111-2.109c0-0.812-0.208-1.567-0.905-2.018c-0.584-0.341-1.45-0.358-2.111-0.358h-3.77v7.763h1.528V7.84
	h1.525l1.734,3.278h1.772L378.042,7.84z M374.896,6.672V4.464h1.885c0.753,0,1.866,0,1.866,1.041c0,0.979-0.604,1.186-1.471,1.167
	H374.896z"/>
</svg>
